<?xml version="1.0" encoding="UTF-8" standalone="no"?>
<!DOCTYPE svg PUBLIC "-//W3C//DTD SVG 1.1//EN" "http://www.w3.org/Graphics/SVG/1.1/DTD/svg11.dtd">
<svg width="441px" height="55px" version="1.1" xmlns="http://www.w3.org/2000/svg" xmlns:xlink="http://www.w3.org/1999/xlink" xml:space="preserve" xmlns:serif="http://www.serif.com/" style="fill-rule:evenodd;clip-rule:evenodd;stroke-linecap:round;stroke-linejoin:round;">
    <g transform="matrix(1.10091,0,0,1,6.52179,5.65225)">
        <rect id="Plan-de-travail1" serif:id="Plan de travail1" x="-5.924" y="-5.652" width="400.032" height="54.971" style="fill:none;"/>
        <g id="Plan-de-travail11" serif:id="Plan de travail1">
            <g transform="matrix(0.908342,0,0,1,-48.252,-1.28287)">
                <path d="M51.665,36.166l8.7,0l0,-13.3c0,-2.7 1.3,-4.05 3.6,-4.05c1.25,0 2.15,0.4 2.75,1l5.05,-6.75c-1.2,-1.25 -2.9,-1.85 -5.2,-1.85c-2.55,0 -4.55,0.7 -6.2,2.05l0,-1.55l-8.7,0l0,24.45Z" style="fill:rgb(251,191,36);fill-rule:nonzero;"/>
            </g>
            <g transform="matrix(0.908342,0,0,1,-48.252,-1.28287)">
                <path d="M85.165,36.716c4.3,0 7.75,-1.4 10.2,-4.15l-4.55,-4.55c-1.45,1.65 -3.3,2.45 -5.65,2.45c-2.85,0 -4.75,-1.3 -5.5,-3.7l17.15,-0.1c0.3,-1.35 0.4,-2.35 0.4,-3.3c0,-7.1 -5.3,-12.25 -12.7,-12.25c-7.65,0 -13.35,5.45 -13.35,12.8c0,7.55 5.75,12.8 14,12.8Zm-0.55,-19.35c2.45,0 4,1.25 4.55,3.7l-9.5,0.05c0.7,-2.4 2.5,-3.75 4.95,-3.75Z" style="fill:rgb(251,191,36);fill-rule:nonzero;"/>
            </g>
            <g transform="matrix(0.908342,0,0,1,-48.252,-1.28287)">
                <path d="M100.515,36.166l8.7,0l0,-13.8c0,-2.25 1.5,-3.65 3.6,-3.65c2.05,0 3.55,1.4 3.55,3.65l0,13.8l8.7,0l0,-15.8c0,-5.1 -3.95,-9.15 -9.2,-9.15c-2.65,0 -4.9,0.75 -6.65,2.1l0,-1.6l-8.7,0l0,24.45Z" style="fill:rgb(251,191,36);fill-rule:nonzero;"/>
            </g>
            <g transform="matrix(0.908342,0,0,1,-48.252,-1.28287)">
                <path d="M132.715,36.166l8.7,0l0,-17.2l5.4,0l0,-7.25l-5.4,0l0,-10.1l-8.7,0l0,10.1l-5.4,0l0,7.25l5.4,0l0,17.2Z" style="fill:rgb(251,191,36);fill-rule:nonzero;"/>
            </g>
            <g transform="matrix(0.908342,0,0,1,-48.252,-1.28287)">
                <path d="M161.515,36.716c7.8,0 13.6,-5.5 13.6,-12.85c0,-7.3 -5.8,-12.75 -13.65,-12.75c-7.85,0 -13.65,5.5 -13.65,12.75c0,7.35 5.85,12.85 13.7,12.85Zm-0.05,-7.75c-2.85,0 -4.8,-2.05 -4.8,-5c0,-3 1.95,-5.05 4.8,-5.05c2.85,0 4.8,2 4.8,5c0,3 -1.9,5.05 -4.8,5.05Z" style="fill:rgb(255,113,36);fill-rule:nonzero;"/>
            </g>
            <g transform="matrix(0.908342,0,0,1,-48.252,-1.28287)">
                <path d="M178.565,36.166l8.7,0l0,-13.3c0,-2.7 1.3,-4.05 3.6,-4.05c1.25,0 2.15,0.4 2.75,1l5.05,-6.75c-1.2,-1.25 -2.9,-1.85 -5.2,-1.85c-2.55,0 -4.55,0.7 -6.2,2.05l0,-1.55l-8.7,0l0,24.45Z" style="fill:rgb(255,113,36);fill-rule:nonzero;"/>
            </g>
            <g transform="matrix(0.908342,0,0,1,-48.252,-1.28287)">
                <path d="M199.815,36.166l8.5,0l0,-1.4c1.65,1.15 3.8,1.9 6.05,1.9c7.1,0 12,-5.35 12,-12.7c0,-7.4 -4.9,-12.75 -12,-12.75c-2.2,0 -4.25,0.6 -5.85,1.65l0,-13.15l-8.7,0l0,36.45Zm13,-7.25c-2.85,0 -4.8,-2.05 -4.8,-5c0,-2.9 1.95,-4.95 4.75,-4.95c2.8,0 4.8,2.1 4.8,4.95c0,2.95 -2,5 -4.75,5Z" style="fill:rgb(251,191,36);fill-rule:nonzero;"/>
            </g>
            <g transform="matrix(0.908342,0,0,1,-48.252,-1.28287)">
                <path d="M241.165,36.716c6.95,0 11.85,-4.4 11.85,-10.85l0,-14.15l-8.7,0l0,14.15c0,2.05 -1.3,3.3 -3.15,3.3c-1.9,0 -3.15,-1.25 -3.15,-3.3l0,-14.15l-8.7,0l0,14.15c0,6.35 4.95,10.85 11.85,10.85Z" style="fill:rgb(251,191,36);fill-rule:nonzero;"/>
            </g>
            <g transform="matrix(0.908342,0,0,1,-48.252,-1.28287)">
                <path d="M258.965,46.516l8.75,0l4.2,-10.35l10.05,-24.45l-9.3,0l-4.2,14.05l-4.2,-14.05l-9.3,0l9.3,23.2l-5.3,11.6Z" style="fill:rgb(251,191,36);fill-rule:nonzero;"/>
            </g>
            <g transform="matrix(0.908342,0,0,1,-48.252,-1.28287)">
                <path d="M293.965,36.666c2.5,0 4.7,-0.8 6.3,-2.15l0,1.65l8.55,0l0,-24.45l-8.55,0l0,1.7c-1.6,-1.4 -3.8,-2.2 -6.3,-2.2c-6.8,0 -11.7,5.35 -11.7,12.75c0,7.35 4.9,12.7 11.7,12.7Zm1.85,-7.75c-2.75,0 -4.75,-2.05 -4.75,-5c0,-2.85 2,-4.95 4.8,-4.95c2.8,0 4.75,2.05 4.75,4.95c0,2.95 -1.95,5 -4.8,5Z" style="fill:rgb(255,113,36);fill-rule:nonzero;"/>
            </g>
            <g transform="matrix(0.908342,0,0,1,-48.252,-1.28287)">
                <path d="M313.915,46.516l8.5,0l0,-11.6c1.65,1.1 3.8,1.75 6.05,1.75c7.1,0 12,-5.35 12,-12.7c0,-7.4 -4.9,-12.75 -12,-12.75c-2.2,0 -4.25,0.7 -5.85,1.8l0,-1.3l-8.7,0l0,34.8Zm12.95,-17.6c-2.8,0 -4.75,-2.05 -4.75,-5c0,-2.95 1.95,-4.95 4.8,-4.95c2.75,0 4.75,2.05 4.75,4.95c0,2.9 -2,5 -4.8,5Z" style="fill:rgb(251,191,36);fill-rule:nonzero;"/>
            </g>
            <g transform="matrix(0.908342,0,0,1,-48.252,-1.28287)">
                <rect x="344.065" y="-0.284" width="8.7" height="36.45" style="fill:rgb(251,191,36);fill-rule:nonzero;"/>
            </g>
            <g transform="matrix(0.908342,0,0,1,-48.252,-1.28287)">
                <path d="M368.065,36.666c2.5,0 4.7,-0.8 6.3,-2.15l0,1.65l8.55,0l0,-24.45l-8.55,0l0,1.7c-1.6,-1.4 -3.8,-2.2 -6.3,-2.2c-6.8,0 -11.7,5.35 -11.7,12.75c0,7.35 4.9,12.7 11.7,12.7Zm1.85,-7.75c-2.75,0 -4.75,-2.05 -4.75,-5c0,-2.85 2,-4.95 4.8,-4.95c2.8,0 4.75,2.05 4.75,4.95c0,2.95 -1.95,5 -4.8,5Z" style="fill:rgb(251,191,36);fill-rule:nonzero;"/>
            </g>
            <g transform="matrix(0.908342,0,0,1,-48.252,-1.28287)">
                <path d="M388.015,36.166l8.7,0l0,-13.8c0,-2.25 1.5,-3.65 3.6,-3.65c2.05,0 3.55,1.4 3.55,3.65l0,13.8l8.7,0l0,-15.8c0,-5.1 -3.95,-9.15 -9.2,-9.15c-2.65,0 -4.9,0.75 -6.65,2.1l0,-1.6l-8.7,0l0,24.45Z" style="fill:rgb(251,191,36);fill-rule:nonzero;"/>
            </g>
            <g transform="matrix(0.908342,0,0,1,-48.252,-1.28287)">
                <path d="M429.515,36.716c4.3,0 7.75,-1.4 10.2,-4.15l-4.55,-4.55c-1.45,1.65 -3.3,2.45 -5.65,2.45c-2.85,0 -4.75,-1.3 -5.5,-3.7l17.15,-0.1c0.3,-1.35 0.4,-2.35 0.4,-3.3c0,-7.1 -5.3,-12.25 -12.7,-12.25c-7.65,0 -13.35,5.45 -13.35,12.8c0,7.55 5.75,12.8 14,12.8Zm-0.55,-19.35c2.45,0 4,1.25 4.55,3.7l-9.5,0.05c0.7,-2.4 2.5,-3.75 4.95,-3.75Z" style="fill:rgb(251,191,36);fill-rule:nonzero;"/>
            </g>
            <g transform="matrix(0.908342,0,0,1,351.657,-1.97917)">
                <path d="M35.6,38.4l-3.6,-16.4l7,-7c3,-3 4,-7 3,-9c-2,-1 -6,0 -9,3l-7,7l-16.4,-3.6c-1,-0.2 -1.8,0.2 -2.2,1l-0.6,1c-0.4,1 -0.2,2 0.6,2.6l10.6,7l-4,6l-6,0l-2,2l6,4l4,6l2,-2l0,-6l6,-4l7,10.6c0.6,0.8 1.6,1 2.6,0.6l1,-0.4c0.8,-0.6 1.2,-1.4 1,-2.4Z" style="fill:none;fill-rule:nonzero;stroke:rgb(255,113,36);stroke-width:1.87px;"/>
            </g>
        </g>
    </g>
</svg>
